<svg width="32" height="32" viewBox="0 0 32 32" fill="none" xmlns="http://www.w3.org/2000/svg">
<g clip-path="url(#clip0)">
<path d="M10.285 5.00701C10.714 4.56301 11.428 4.56301 11.872 5.00701C12.301 5.43601 12.301 6.15001 11.872 6.57801L3.82499 14.625H30.379C30.998 14.626 31.49 15.118 31.49 15.737C31.49 16.356 30.998 16.864 30.379 16.864H3.82499L11.872 24.896C12.301 25.34 12.301 26.055 11.872 26.483C11.428 26.927 10.713 26.927 10.285 26.483L0.332991 16.531C-0.11101 16.102 -0.11101 15.388 0.332991 14.96L10.285 5.00701Z" fill="white"/>
</g>
<defs>
<clipPath id="clip0">
<rect width="31.49" height="31.49" fill="white" transform="matrix(-1 0 0 1 31.49 0)"/>
</clipPath>
</defs>
</svg>
